<svg width="379" height="45" viewBox="0 0 379 45" fill="none" xmlns="http://www.w3.org/2000/svg">
<g clip-path="url(#clip0_25_76)">
<path d="M28.769 22.6574L18.5968 12.4209H38.9411V22.6574H28.769Z" fill="#C046FF"/>
<path d="M127.327 8.8667H123.482V26.2114H137.977V22.5463H127.327V8.8667Z" fill="white"/>
<path d="M62.7068 20.9358L62.5413 20.6396L52.8658 8.8667H49.1133V26.2114H52.7554V13.9757L52.9761 14.3089L62.7252 26.2114H66.3489V8.8667H62.7068V20.9358Z" fill="white"/>
<path d="M18.56 12.4209V12.4023L8.42467 2.18433H0V31.1169H10.1722V20.8803L20.3443 31.1169H28.769V22.6574L18.5968 12.4209H18.56Z" fill="white"/>
<path d="M28.7322 12.4209V2.18433H18.5601V12.4023L18.5968 12.4209H28.7322Z" fill="white"/>
<path d="M79.5562 15.5676H69.752V19.5104H79.5562V15.5676Z" fill="white"/>
<path d="M116.731 17.2521C117.835 17.0115 118.626 16.5857 119.159 16.0119C119.674 15.4195 119.95 14.5865 119.95 13.5129V13.3833C119.95 11.7173 119.288 10.5326 117.982 9.86624C116.658 9.19985 114.653 8.84814 111.967 8.84814H103.156V26.2114H112.151C114.837 26.2114 116.879 25.8412 118.258 25.0822C119.656 24.3233 120.355 23.0275 120.355 21.1949V21.1209C120.355 19.9362 120.061 19.0477 119.472 18.4738C118.884 17.8815 117.982 17.4927 116.731 17.2521ZM106.854 11.958H112.151C113.586 11.958 114.634 12.069 115.241 12.2912C115.867 12.5133 116.161 13.0316 116.161 13.8461V13.9386C116.161 14.7346 115.812 15.2529 115.094 15.475C114.377 15.6972 113.439 15.8082 112.262 15.8082H106.835V11.958H106.854ZM116.437 20.9358C116.437 21.4356 116.308 21.8428 116.051 22.139C115.793 22.4351 115.315 22.6388 114.634 22.7683C114.285 22.8424 113.862 22.8794 113.365 22.9164C112.869 22.9535 112.298 22.972 111.655 22.972H106.854V18.8625H111.894C113.052 18.8625 113.954 18.9181 114.616 19.0291C115.278 19.1402 115.738 19.3253 116.032 19.6215C116.161 19.7696 116.253 19.9547 116.327 20.1583C116.4 20.3619 116.437 20.6211 116.437 20.8802V20.9543V20.9358Z" fill="white"/>
<path d="M144.709 19.1588H154.532V15.8453H144.709V12.1431H156.316V8.8667H141.049V26.2114H156.831V22.8054H144.709V19.1588Z" fill="white"/>
<path d="M88.4407 8.8667L80.3287 26.2299H84.4307L86.1046 22.4352H94.9524L96.6814 26.2299H100.71L92.4691 8.8667H88.4407ZM87.5026 19.2328L90.4457 12.5689L93.4992 19.2328H87.5026Z" fill="white"/>
<path d="M158.266 9.23692H159.039V11.125H159.443V9.23692H160.216V8.8667H158.266V9.23692Z" fill="white"/>
<path d="M162.975 11.125V8.8667H162.644L161.816 10.2365L160.989 8.8667H160.657V11.125H161.044V9.64416L161.688 10.7548H161.945L162.589 9.64416V11.125H162.975Z" fill="white"/>
<path d="M22.4597 42.816C21.9263 42.816 21.5032 42.7234 21.1353 42.5198C20.7858 42.3162 20.5099 42.057 20.326 41.7423C20.142 41.4276 20.05 41.0574 20.05 40.6687C20.05 40.2985 20.1052 39.9838 20.234 39.7246C20.3628 39.4655 20.5467 39.2248 20.8042 39.0212C21.0617 38.8361 21.3561 38.6695 21.7239 38.5585C22.0367 38.4659 22.4045 38.3919 22.7908 38.3178C23.1955 38.2438 23.6002 38.1882 24.0417 38.1142C24.4831 38.0587 24.9246 37.9846 25.3477 37.9291L24.851 38.2067C24.851 37.6514 24.7406 37.2257 24.5015 36.9665C24.2624 36.6889 23.8393 36.5593 23.2507 36.5593C22.8828 36.5593 22.5333 36.6518 22.2206 36.8184C21.9079 36.985 21.6872 37.2812 21.5768 37.6884L20.2892 37.2997C20.4731 36.6889 20.8042 36.2076 21.2825 35.8374C21.7607 35.4671 22.4229 35.3005 23.2507 35.3005C23.8761 35.3005 24.4463 35.4116 24.9062 35.6337C25.3845 35.8559 25.7156 36.1891 25.9363 36.6703C26.0467 36.911 26.1202 37.1516 26.1386 37.4108C26.157 37.6699 26.1754 37.9476 26.1754 38.2438V42.6309H24.9614V41.0019L25.2005 41.2055C24.9062 41.7608 24.5383 42.1496 24.0784 42.4272C23.6186 42.6864 23.0667 42.8345 22.4045 42.8345L22.4597 42.816ZM22.6989 41.6868C23.0851 41.6868 23.4162 41.6128 23.7106 41.4832C24.0049 41.3536 24.2072 41.1685 24.3911 40.9464C24.5567 40.7242 24.6671 40.5021 24.7222 40.28C24.7958 40.0764 24.8326 39.8357 24.851 39.558C24.851 39.2989 24.851 39.0768 24.851 38.9287L25.2925 39.0953C24.851 39.1693 24.4647 39.2248 24.1152 39.2804C23.7657 39.3359 23.4346 39.3914 23.1587 39.4285C22.8644 39.484 22.6253 39.5395 22.3861 39.6136C22.2022 39.6876 22.0367 39.7617 21.8895 39.8542C21.7423 39.9468 21.632 40.0578 21.54 40.1874C21.448 40.317 21.4112 40.4836 21.4112 40.6687C21.4112 40.8538 21.448 41.0204 21.54 41.187C21.632 41.3351 21.7791 41.4647 21.9631 41.5572C22.147 41.6498 22.3861 41.6868 22.6805 41.6868H22.6989Z" fill="white"/>
<path d="M30.59 42.7974C30.0934 42.7974 29.6887 42.7233 29.3576 42.5567C29.0265 42.3901 28.7506 42.1865 28.5482 41.9273C28.3459 41.6682 28.1804 41.3905 28.07 41.0758C27.9596 40.7612 27.886 40.4835 27.8493 40.1873C27.8125 39.8911 27.7941 39.6505 27.7941 39.4284V35.467H29.192V38.9841C29.192 39.2618 29.2104 39.5394 29.2656 39.8356C29.3208 40.1318 29.3944 40.4095 29.5231 40.6501C29.6519 40.8907 29.8359 41.1129 30.075 41.261C30.3141 41.409 30.6084 41.4831 30.9947 41.4831C31.2338 41.4831 31.473 41.4461 31.6937 41.3535C31.9144 41.261 32.0984 41.1499 32.2639 40.9648C32.4295 40.7797 32.5582 40.539 32.6502 40.2429C32.7422 39.9467 32.7974 39.595 32.7974 39.1692L33.6435 39.4839C33.6435 40.1318 33.5148 40.7056 33.2756 41.2054C33.0365 41.7052 32.687 42.0939 32.2455 42.3716C31.7857 42.6493 31.2522 42.7788 30.6084 42.7788L30.59 42.7974ZM32.9445 42.6123V40.5575H32.779V35.4856H34.1586V42.6123H32.9445Z" fill="white"/>
<path d="M35.2072 36.5962V35.4855H40.0449V36.5962H35.2072ZM40.0633 42.6122C39.6218 42.7048 39.1804 42.7418 38.7573 42.7233C38.3342 42.7233 37.9479 42.6307 37.6168 42.4641C37.2857 42.316 37.0282 42.0754 36.8627 41.7422C36.7155 41.446 36.6235 41.1498 36.6235 40.8352C36.6235 40.5205 36.6235 40.1873 36.6235 39.7985V33.4863H38.0031V39.7245C38.0031 40.0022 38.0031 40.2613 38.0031 40.4649C38.0031 40.6686 38.0583 40.8537 38.1319 41.0018C38.2974 41.2794 38.5366 41.4275 38.8861 41.4645C39.2355 41.5015 39.6402 41.483 40.1001 41.4275V42.5937L40.0633 42.6122Z" fill="white"/>
<path d="M41.5348 42.6123V33.0977H42.7672V38.2252H42.9328V42.6123H41.5348ZM46.5197 42.6123V39.1137C46.5197 38.836 46.5013 38.5584 46.4461 38.2622C46.4093 37.966 46.3174 37.6884 46.1886 37.4477C46.0598 37.1886 45.8759 36.9849 45.6368 36.8369C45.3976 36.6888 45.1033 36.6147 44.717 36.6147C44.4779 36.6147 44.2388 36.6518 44.018 36.7443C43.7973 36.8183 43.6134 36.9479 43.4478 37.133C43.2823 37.3181 43.1535 37.5588 43.0615 37.855C42.9696 38.1511 42.9144 38.5028 42.9144 38.9286L42.0682 38.6139C42.0682 37.966 42.197 37.3922 42.4361 36.8924C42.6752 36.3926 43.0247 36.0039 43.4662 35.7262C43.9261 35.4485 44.4595 35.319 45.1033 35.319C45.6 35.319 46.0047 35.393 46.3358 35.5596C46.6669 35.7262 46.9428 35.9298 47.1451 36.189C47.3474 36.4481 47.513 36.7258 47.6234 37.0405C47.7337 37.3552 47.8073 37.6328 47.8441 37.929C47.8809 38.2252 47.8993 38.4843 47.8993 38.6879V42.6493H46.5013L46.5197 42.6123Z" fill="white"/>
<path d="M52.7002 42.8159C51.9828 42.8159 51.3758 42.6493 50.8608 42.3346C50.3457 42.02 49.9411 41.5757 49.6651 41.0019C49.3892 40.428 49.2421 39.7801 49.2421 39.0397C49.2421 38.2993 49.3892 37.6329 49.6835 37.0775C49.9778 36.5037 50.3825 36.078 50.8976 35.7633C51.4126 35.4486 52.0196 35.282 52.7186 35.282C53.4176 35.282 54.043 35.4486 54.5581 35.7633C55.0731 36.078 55.4778 36.5222 55.7721 37.0961C56.048 37.6514 56.1952 38.3178 56.1952 39.0397C56.1952 39.7616 56.048 40.4465 55.7721 41.0019C55.4778 41.5757 55.0731 42.0014 54.5581 42.3346C54.043 42.6493 53.4176 42.8159 52.7186 42.8159H52.7002ZM52.7002 41.5202C53.3808 41.5202 53.8775 41.298 54.227 40.8353C54.5765 40.3725 54.7236 39.7801 54.7236 39.0582C54.7236 38.3363 54.5581 37.7254 54.2086 37.2626C53.8591 36.7999 53.3624 36.5963 52.7002 36.5963C52.2404 36.5963 51.8541 36.7073 51.5598 36.9109C51.2655 37.1146 51.0447 37.4107 50.8976 37.781C50.7504 38.1512 50.6768 38.5769 50.6768 39.0582C50.6768 39.7986 50.8424 40.4095 51.1919 40.8538C51.5414 41.298 52.038 41.5202 52.7002 41.5202Z" fill="white"/>
<path d="M57.63 42.6122V35.4855H58.844V37.2255L58.6785 37.0034C58.7705 36.7813 58.8808 36.5591 59.028 36.374C59.1751 36.1889 59.3223 36.0223 59.5062 35.8927C59.6902 35.7632 59.8925 35.6521 60.1133 35.5781C60.334 35.504 60.5547 35.467 60.7939 35.4485C61.033 35.4485 61.2537 35.4485 61.4561 35.4855V36.7813C61.2169 36.7257 60.9594 36.7072 60.6835 36.7257C60.4076 36.7443 60.15 36.8368 59.9109 37.0034C59.6902 37.1515 59.5062 37.3181 59.3775 37.5402C59.2487 37.7438 59.1567 37.9845 59.1016 38.2251C59.0464 38.4843 59.0096 38.7434 59.0096 39.0211V42.6122H57.63Z" fill="white"/>
<path d="M62.8356 34.3194V32.9866H64.2152V34.3194H62.8356ZM62.8356 42.6122V35.4855H64.2152V42.6122H62.8356Z" fill="white"/>
<path d="M65.5212 42.6122V42.3901L69.5496 36.7073H65.8891V35.467H71.7202V35.6892L67.7102 41.372H71.5362V42.6122H65.5212Z" fill="white"/>
<path d="M75.7854 42.8159C75.0864 42.8159 74.461 42.6678 73.9276 42.3531C73.3941 42.0385 72.9894 41.6127 72.6951 41.0574C72.4008 40.5021 72.2537 39.8542 72.2537 39.1137C72.2537 38.3363 72.4008 37.6514 72.6951 37.0775C72.9894 36.5037 73.3941 36.0594 73.9092 35.7448C74.4242 35.4301 75.0312 35.282 75.7302 35.282C76.4292 35.282 77.073 35.4486 77.5697 35.7818C78.0847 36.115 78.4526 36.5963 78.7101 37.2256C78.9677 37.855 79.0596 38.5769 79.0044 39.4469H77.6249V38.9471C77.6249 38.1142 77.4593 37.5033 77.1466 37.1146C76.8339 36.7258 76.374 36.5222 75.767 36.5222C75.0864 36.5222 74.5714 36.7443 74.2219 37.1701C73.8724 37.6144 73.7068 38.2437 73.7068 39.0582C73.7068 39.8727 73.8724 40.4465 74.2219 40.8723C74.5714 41.298 75.068 41.5202 75.7118 41.5202C76.1349 41.5202 76.5028 41.4276 76.8339 41.224C77.1466 41.0204 77.3857 40.7427 77.5697 40.3725L78.9125 40.7982C78.6366 41.4276 78.2135 41.9274 77.6616 42.2791C77.1098 42.6308 76.4844 42.7974 75.7854 42.7974V42.8159ZM73.247 39.4284V38.3548H78.3054V39.4284H73.247Z" fill="white"/>
<path d="M83.2902 42.8159C82.628 42.8159 82.0578 42.6493 81.5795 42.3161C81.1013 41.9829 80.7334 41.5386 80.4759 40.9648C80.2184 40.391 80.0896 39.7616 80.0896 39.0397C80.0896 38.3177 80.2184 37.6884 80.4759 37.1145C80.7334 36.5407 81.1197 36.0964 81.5979 35.7817C82.0762 35.4485 82.6648 35.2819 83.327 35.2819C83.9892 35.2819 84.5595 35.4485 85.0193 35.7817C85.4792 36.1149 85.8287 36.5592 86.0494 37.133C86.2885 37.7069 86.3989 38.3362 86.3989 39.0582C86.3989 39.7801 86.2885 40.4095 86.0494 40.9833C85.8103 41.5571 85.4608 42.0014 85.0009 42.3346C84.5411 42.6678 83.9708 42.8344 83.2902 42.8344V42.8159ZM83.4742 41.5571C83.934 41.5571 84.2835 41.4461 84.5779 41.2425C84.8538 41.0203 85.0745 40.7241 85.2033 40.3539C85.332 39.9837 85.4056 39.5395 85.4056 39.0397C85.4056 38.5399 85.332 38.1141 85.2033 37.7254C85.0745 37.3552 84.8722 37.059 84.5779 36.8369C84.3019 36.6332 83.9524 36.5222 83.511 36.5222C83.0511 36.5222 82.6832 36.6332 82.3889 36.8554C82.0946 37.0775 81.8739 37.3737 81.7267 37.7624C81.5796 38.1326 81.506 38.5584 81.506 39.0397C81.506 39.5209 81.5796 39.9282 81.7267 40.3169C81.8739 40.7056 82.0762 41.0018 82.3705 41.2239C82.6648 41.4461 83.0143 41.5571 83.4558 41.5571H83.4742ZM85.4056 42.6123V37.4847H85.2401V33.0977H86.6196V42.6123H85.4056Z" fill="white"/>
<path d="M93.9039 42.8159C93.2417 42.8159 92.6715 42.6493 92.1932 42.3161C91.7149 41.9829 91.3471 41.5386 91.0895 40.9648C90.832 40.391 90.7032 39.7616 90.7032 39.0397C90.7032 38.3177 90.832 37.6884 91.0895 37.1145C91.3471 36.5407 91.7333 36.0964 92.2116 35.7817C92.6899 35.4485 93.2785 35.2819 93.9407 35.2819C94.6029 35.2819 95.1731 35.4485 95.633 35.7817C96.0928 36.1149 96.4423 36.5592 96.6631 37.133C96.9022 37.7069 97.0126 38.3362 97.0126 39.0582C97.0126 39.7801 96.9022 40.4095 96.6631 40.9833C96.4239 41.5571 96.0744 42.0014 95.6146 42.3346C95.1547 42.6678 94.5845 42.8344 93.9039 42.8344V42.8159ZM94.0878 41.5571C94.5477 41.5571 94.8972 41.4461 95.1915 41.2425C95.4674 41.0203 95.6882 40.7241 95.8169 40.3539C95.9457 39.9837 96.0193 39.5395 96.0193 39.0397C96.0193 38.5399 95.9457 38.1141 95.8169 37.7254C95.6882 37.3552 95.4858 37.059 95.1915 36.8369C94.9156 36.6332 94.5661 36.5222 94.1246 36.5222C93.6648 36.5222 93.2969 36.6332 93.0026 36.8554C92.7082 37.0775 92.4875 37.3737 92.3404 37.7624C92.1932 38.1326 92.1196 38.5584 92.1196 39.0397C92.1196 39.5209 92.1932 39.9282 92.3404 40.3169C92.4875 40.7056 92.6898 41.0018 92.9842 41.2239C93.2785 41.4461 93.628 41.5571 94.0694 41.5571H94.0878ZM96.0193 42.6123V37.4847H95.8537V33.0977H97.2333V42.6123H96.0193Z" fill="white"/>
<path d="M99.2015 34.3194V32.9866H100.581V34.3194H99.2015ZM99.2015 42.6122V35.4855H100.581V42.6122H99.2015Z" fill="white"/>
<path d="M105.253 42.7974C104.389 42.7974 103.69 42.6123 103.138 42.2236C102.586 41.8348 102.255 41.298 102.145 40.6131L103.543 40.391C103.635 40.7612 103.837 41.0574 104.15 41.261C104.462 41.4831 104.867 41.5757 105.327 41.5757C105.75 41.5757 106.099 41.4831 106.339 41.3165C106.578 41.1314 106.706 40.8908 106.706 40.5946C106.706 40.4095 106.67 40.2614 106.578 40.1504C106.486 40.0393 106.32 39.9282 106.044 39.8357C105.768 39.7431 105.364 39.6135 104.812 39.4654C104.205 39.2988 103.727 39.1323 103.359 38.9471C102.991 38.762 102.752 38.5584 102.605 38.2993C102.457 38.0586 102.384 37.7624 102.384 37.4107C102.384 36.985 102.494 36.5963 102.733 36.2816C102.972 35.9669 103.285 35.7077 103.69 35.5411C104.094 35.356 104.591 35.282 105.143 35.282C105.695 35.282 106.173 35.3745 106.596 35.5411C107.019 35.7077 107.369 35.9484 107.626 36.2631C107.884 36.5777 108.049 36.948 108.104 37.3737L106.706 37.6329C106.651 37.2812 106.504 37.022 106.228 36.8184C105.952 36.6148 105.603 36.5037 105.18 36.5037C104.757 36.5037 104.426 36.5592 104.168 36.7073C103.911 36.8554 103.782 37.0775 103.782 37.3552C103.782 37.5218 103.837 37.6514 103.929 37.7624C104.021 37.8735 104.223 37.9846 104.499 38.0771C104.775 38.1697 105.198 38.2993 105.768 38.4473C106.357 38.5954 106.835 38.7805 107.185 38.9657C107.534 39.1508 107.792 39.3729 107.939 39.632C108.086 39.8912 108.16 40.2059 108.16 40.5576C108.16 41.261 107.902 41.8163 107.387 42.2236C106.872 42.6308 106.173 42.8159 105.272 42.8159L105.253 42.7974Z" fill="white"/>
<path d="M108.785 36.5962V35.4855H113.623V36.5962H108.785ZM113.641 42.6122C113.2 42.7048 112.758 42.7418 112.335 42.7233C111.912 42.7233 111.526 42.6307 111.195 42.4641C110.864 42.316 110.606 42.0754 110.441 41.7422C110.293 41.446 110.201 41.1498 110.201 40.8352C110.201 40.5205 110.201 40.1873 110.201 39.7985V33.4863H111.581V39.7245C111.581 40.0022 111.581 40.2613 111.581 40.4649C111.581 40.6686 111.636 40.8537 111.71 41.0018C111.875 41.2794 112.114 41.4275 112.464 41.4645C112.813 41.5015 113.218 41.483 113.678 41.4275V42.5937L113.641 42.6122Z" fill="white"/>
<path d="M115.131 42.6122V35.4855H116.345V37.2255L116.18 37.0034C116.272 36.7813 116.382 36.5591 116.529 36.374C116.676 36.1889 116.823 36.0223 117.007 35.8927C117.191 35.7632 117.394 35.6521 117.614 35.5781C117.835 35.504 118.056 35.467 118.295 35.4485C118.534 35.4485 118.755 35.4485 118.957 35.4855V36.7813C118.718 36.7257 118.461 36.7072 118.185 36.7257C117.909 36.7443 117.651 36.8368 117.412 37.0034C117.191 37.1515 117.007 37.3181 116.879 37.5402C116.75 37.7438 116.658 37.9845 116.603 38.2251C116.547 38.4843 116.511 38.7434 116.511 39.0211V42.6122H115.131Z" fill="white"/>
<path d="M120.337 34.3194V32.9866H121.716V34.3194H120.337ZM120.337 42.6122V35.4855H121.716V42.6122H120.337Z" fill="white"/>
<path d="M123.666 42.6123V33.0977H125.046V37.4847H124.88V42.6123H123.666ZM126.996 42.8159C126.315 42.8159 125.745 42.6493 125.285 42.3161C124.825 41.9829 124.476 41.5386 124.236 40.9648C123.997 40.391 123.887 39.7616 123.887 39.0397C123.887 38.3177 123.997 37.6884 124.236 37.1145C124.476 36.5407 124.825 36.0964 125.267 35.7632C125.726 35.43 126.278 35.2634 126.959 35.2634C127.639 35.2634 128.191 35.43 128.688 35.7632C129.166 36.0964 129.552 36.5407 129.81 37.096C130.068 37.6699 130.196 38.2992 130.196 39.0211C130.196 39.7431 130.068 40.3724 129.81 40.9463C129.552 41.5201 129.185 41.9644 128.706 42.2976C128.228 42.6308 127.658 42.7974 126.996 42.7974V42.8159ZM126.812 41.5571C127.253 41.5571 127.603 41.4461 127.897 41.2239C128.191 41.0018 128.394 40.7056 128.541 40.3169C128.688 39.9282 128.762 39.5024 128.762 39.0397C128.762 38.5769 128.688 38.1511 128.541 37.7624C128.394 37.3922 128.173 37.0775 127.879 36.8554C127.584 36.6332 127.216 36.5222 126.757 36.5222C126.333 36.5222 125.966 36.6332 125.69 36.8369C125.414 37.0405 125.211 37.3367 125.064 37.7254C124.935 38.0956 124.862 38.5399 124.862 39.0397C124.862 39.5395 124.935 39.9652 125.064 40.3539C125.193 40.7241 125.395 41.0388 125.69 41.2425C125.966 41.4646 126.333 41.5571 126.793 41.5571H126.812Z" fill="white"/>
<path d="M134.335 42.7974C133.838 42.7974 133.434 42.7233 133.103 42.5567C132.771 42.3901 132.496 42.1865 132.293 41.9273C132.091 41.6682 131.925 41.3905 131.815 41.0758C131.705 40.7612 131.631 40.4835 131.594 40.1873C131.557 39.8911 131.539 39.6505 131.539 39.4284V35.467H132.937V38.9841C132.937 39.2618 132.955 39.5394 133.011 39.8356C133.066 40.1318 133.139 40.4095 133.268 40.6501C133.397 40.8907 133.581 41.1129 133.82 41.261C134.059 41.409 134.353 41.4831 134.74 41.4831C134.979 41.4831 135.218 41.4461 135.439 41.3535C135.659 41.261 135.843 41.1499 136.009 40.9648C136.174 40.7797 136.303 40.539 136.395 40.2429C136.487 39.9467 136.542 39.595 136.542 39.1692L137.389 39.4839C137.389 40.1318 137.26 40.7056 137.021 41.2054C136.781 41.7052 136.432 42.0939 135.991 42.3716C135.531 42.6493 134.997 42.7788 134.353 42.7788L134.335 42.7974ZM136.671 42.6123V40.5575H136.506V35.4856H137.885V42.6123H136.671Z" fill="white"/>
<path d="M138.952 36.5962V35.4855H143.79V36.5962H138.952ZM143.79 42.6122C143.348 42.7048 142.907 42.7418 142.484 42.7233C142.061 42.7233 141.674 42.6307 141.343 42.4641C141.012 42.316 140.755 42.0754 140.589 41.7422C140.442 41.446 140.35 41.1498 140.35 40.8352C140.35 40.5205 140.35 40.1873 140.35 39.7985V33.4863H141.73V39.7245C141.73 40.0022 141.73 40.2613 141.73 40.4649C141.73 40.6686 141.785 40.8537 141.858 41.0018C142.024 41.2794 142.263 41.4275 142.613 41.4645C142.962 41.5015 143.367 41.483 143.827 41.4275V42.5937L143.79 42.6122Z" fill="white"/>
<path d="M148.021 42.8159C147.303 42.8159 146.696 42.6493 146.181 42.3346C145.666 42.02 145.261 41.5757 144.985 41.0019C144.71 40.428 144.562 39.7801 144.562 39.0397C144.562 38.2993 144.71 37.6329 145.004 37.0775C145.298 36.5037 145.703 36.078 146.218 35.7633C146.733 35.4486 147.34 35.282 148.039 35.282C148.738 35.282 149.363 35.4486 149.878 35.7633C150.393 36.078 150.798 36.5222 151.092 37.0961C151.368 37.6514 151.516 38.3178 151.516 39.0397C151.516 39.7616 151.368 40.4465 151.092 41.0019C150.798 41.5757 150.393 42.0014 149.878 42.3346C149.363 42.6493 148.738 42.8159 148.039 42.8159H148.021ZM148.021 41.5202C148.701 41.5202 149.198 41.298 149.547 40.8353C149.897 40.3725 150.044 39.7801 150.044 39.0582C150.044 38.3363 149.878 37.7254 149.529 37.2626C149.179 36.7999 148.683 36.5963 148.021 36.5963C147.561 36.5963 147.174 36.7073 146.88 36.9109C146.586 37.1146 146.365 37.4107 146.218 37.781C146.071 38.1512 145.997 38.5769 145.997 39.0582C145.997 39.7986 146.163 40.4095 146.512 40.8538C146.862 41.298 147.358 41.5202 148.021 41.5202Z" fill="white"/>
<path d="M152.95 42.6122V35.4855H154.164V37.2255L153.999 37.0034C154.091 36.7813 154.201 36.5591 154.348 36.374C154.495 36.1889 154.642 36.0223 154.826 35.8927C155.01 35.7632 155.213 35.6521 155.433 35.5781C155.654 35.504 155.875 35.467 156.114 35.4485C156.353 35.4485 156.574 35.4485 156.776 35.4855V36.7813C156.537 36.7257 156.28 36.7072 156.004 36.7257C155.728 36.7443 155.47 36.8368 155.231 37.0034C155.01 37.1515 154.826 37.3181 154.698 37.5402C154.569 37.7438 154.477 37.9845 154.422 38.2251C154.367 38.4843 154.33 38.7434 154.33 39.0211V42.6122H152.95Z" fill="white"/>
<path d="M223.217 22.7313C222.573 22.8238 220.697 22.9534 218.343 22.9534C215.657 22.9534 213.008 22.4166 213.008 18.2701V4.57206C213.008 4.2944 213.229 4.07227 213.505 4.07227H214.774C215.05 4.07227 215.271 4.2944 215.271 4.57206V18.2701C215.271 20.1768 215.694 20.8987 218.343 20.8987H223.18C223.364 20.8987 223.456 21.0282 223.456 21.1948V22.3795C223.456 22.5276 223.364 22.7127 223.199 22.7313H223.217Z" fill="white"/>
<path d="M227.65 6.71943H226.381C226.105 6.71943 225.884 6.49729 225.884 6.21963V4.20194C225.884 3.92428 226.105 3.70215 226.381 3.70215H227.65C227.926 3.70215 228.147 3.92428 228.147 4.20194V6.21963C228.147 6.49729 227.926 6.71943 227.65 6.71943ZM227.613 22.7869H226.418C226.142 22.7869 225.921 22.5648 225.921 22.2871V9.44053C225.921 9.16286 226.142 8.94073 226.418 8.94073H227.613C227.889 8.94073 228.11 9.16286 228.11 9.44053V22.2871C228.11 22.5648 227.889 22.7869 227.613 22.7869Z" fill="white"/>
<path d="M239.827 22.6943C239 22.8424 237.877 22.972 236.7 22.972C233.297 22.972 231.366 20.5471 231.366 16.8449V14.8827C231.366 11.1805 233.26 8.75562 236.7 8.75562C237.859 8.75562 239 8.88519 239.827 9.03328C240.232 9.10732 240.324 9.2369 240.324 9.58861V10.4956C240.324 10.7548 240.122 10.8659 239.901 10.8659H239.809C238.705 10.7363 237.933 10.6807 236.7 10.6807C234.695 10.6807 233.573 12.0135 233.573 14.8642V16.8264C233.573 19.64 234.677 21.0098 236.7 21.0098C237.933 21.0098 238.705 20.9543 239.809 20.8247H239.901C240.122 20.8247 240.324 20.9543 240.324 21.1949V22.102C240.324 22.4352 240.232 22.5833 239.827 22.6573V22.6943Z" fill="white"/>
<path d="M253.255 16.5672H244.867V16.9189C244.867 19.9177 246.045 21.0283 248.344 21.0283C249.797 21.0283 251.655 20.9358 252.795 20.7507H252.924C253.127 20.7507 253.329 20.8432 253.329 21.1024V21.9539C253.329 22.2871 253.237 22.4537 252.832 22.5277C251.397 22.8054 250.036 22.9535 248.344 22.9535C245.474 22.9535 242.66 21.6022 242.66 16.9004V14.6421C242.66 11.0325 244.628 8.75562 248.215 8.75562C251.802 8.75562 253.715 11.0695 253.715 14.6421V15.9934C253.715 16.3266 253.531 16.5487 253.237 16.5487L253.255 16.5672ZM251.508 14.6421C251.508 11.7914 250.441 10.6807 248.234 10.6807C246.026 10.6807 244.886 11.921 244.886 14.6421V14.8642H251.526V14.6421H251.508Z" fill="white"/>
<path d="M266.83 22.7869H265.524C265.249 22.7869 265.083 22.5647 265.083 22.2871V13.2908C265.083 11.4027 264.605 10.6622 262.912 10.6622H261.128C259.418 10.6622 258.958 11.3842 258.958 13.2908V22.2871C258.958 22.5647 258.774 22.7869 258.516 22.7869H257.21C256.934 22.7869 256.769 22.5647 256.769 22.2871V13.2908C256.769 9.4035 259.454 8.75562 261.147 8.75562H262.931C264.642 8.75562 267.309 9.4035 267.309 13.2908V22.2871C267.309 22.5647 267.125 22.7869 266.849 22.7869H266.83Z" fill="white"/>
<path d="M278.695 22.6943C277.867 22.8424 276.745 22.972 275.568 22.972C272.165 22.972 270.233 20.5471 270.233 16.8449V14.8827C270.233 11.1805 272.128 8.75562 275.568 8.75562C276.727 8.75562 277.867 8.88519 278.695 9.03328C279.1 9.10732 279.192 9.2369 279.192 9.58861V10.4956C279.192 10.7548 278.989 10.8659 278.768 10.8659H278.676C277.573 10.7363 276.8 10.6807 275.568 10.6807C273.563 10.6807 272.441 12.0135 272.441 14.8642V16.8264C272.441 19.64 273.544 21.0098 275.568 21.0098C276.8 21.0098 277.573 20.9543 278.676 20.8247H278.768C278.989 20.8247 279.192 20.9543 279.192 21.1949V22.102C279.192 22.4352 279.1 22.5833 278.695 22.6573V22.6943Z" fill="white"/>
<path d="M284.029 6.71943H282.76C282.484 6.71943 282.263 6.49729 282.263 6.21963V4.20194C282.263 3.92428 282.484 3.70215 282.76 3.70215H284.029C284.305 3.70215 284.526 3.92428 284.526 4.20194V6.21963C284.526 6.49729 284.305 6.71943 284.029 6.71943ZM283.974 22.7869H282.778C282.503 22.7869 282.282 22.5648 282.282 22.2871V9.44053C282.282 9.16286 282.503 8.94073 282.778 8.94073H283.974C284.25 8.94073 284.471 9.16286 284.471 9.44053V22.2871C284.471 22.5648 284.25 22.7869 283.974 22.7869Z" fill="white"/>
<path d="M297.807 22.3796C296.482 22.7128 294.735 22.9535 293.208 22.9535C289.474 22.9535 287.745 20.51 287.745 16.7338V14.9753C287.745 11.1991 289.456 8.75562 293.208 8.75562C294.717 8.75562 296.482 9.01477 297.807 9.32945C298.267 9.42201 298.34 9.55158 298.34 9.90329V21.7873C298.34 22.1205 298.267 22.2686 297.807 22.3611V22.3796ZM296.114 10.8659C295.434 10.7363 294.238 10.6067 293.19 10.6067C290.707 10.6067 289.934 12.2912 289.934 14.9568V16.7153C289.934 19.3624 290.707 21.0654 293.19 21.0654C294.238 21.0654 295.416 20.9358 296.114 20.8062V10.8288V10.8659Z" fill="white"/>
<path d="M305.753 22.9534C304.833 22.9534 303.031 22.8794 301.798 22.5832C301.467 22.5092 301.265 22.3611 301.265 22.0834V21.1949C301.265 20.9728 301.467 20.8247 301.725 20.8247H301.817C303.012 20.9728 304.852 21.1023 305.753 21.1023C307.372 21.1023 308.236 20.6766 308.236 19.3068C308.236 18.5478 307.795 18.0666 306.36 17.2151L303.84 15.6972C302.313 14.7716 301.283 13.6795 301.283 12.0875C301.283 9.45899 303.233 8.73706 305.808 8.73706C307.206 8.73706 308.531 8.86664 309.708 9.07026C310.039 9.12579 310.186 9.29239 310.186 9.57005V10.403C310.186 10.6992 310.002 10.8288 309.763 10.8288H309.69C308.807 10.7547 307.206 10.6252 305.808 10.6252C304.41 10.6252 303.491 10.8103 303.491 12.0875C303.491 12.8465 304.061 13.3278 305.22 13.9942L307.703 15.475C309.782 16.7153 310.462 17.7889 310.462 19.2698C310.462 21.8428 308.586 22.9164 305.79 22.9164L305.753 22.9534Z" fill="white"/>
<path d="M247.553 33.7453L246.983 37.1513C245.99 43.0193 242.844 45.0184 238.466 45.0184C234.879 45.0184 232.525 43.0008 232.525 39.095C232.525 38.4841 232.58 37.8547 232.709 37.1513L233.279 33.7453C234.272 27.8588 237.418 25.8782 241.796 25.8782C245.383 25.8782 247.719 28.0254 247.719 31.8757C247.719 32.4495 247.645 33.0789 247.535 33.7453H247.553ZM241.281 28.9325C238.669 28.9325 237.381 30.3208 236.792 33.7453L236.222 37.1513C236.093 37.8732 236.038 38.5026 236.038 39.0394C236.038 41.2237 237.031 41.9641 239 41.9641C241.648 41.9641 242.936 40.4277 243.488 37.1513L244.058 33.7453C244.187 33.0419 244.242 32.4125 244.242 31.8757C244.242 29.7099 243.267 28.9325 241.281 28.9325Z" fill="white"/>
<path d="M261.533 36.2257L260.135 44.2594C260.08 44.5371 260.006 44.7963 259.565 44.7963H257.21C256.861 44.7963 256.787 44.5741 256.842 44.2594L258.369 35.5408C258.424 35.2076 258.461 34.9114 258.461 34.6153C258.461 33.8008 258.203 33.1714 256.916 33.1714H255.518C254.065 33.1714 253.715 33.8008 253.421 35.5408L251.894 44.2594C251.839 44.5371 251.747 44.7963 251.324 44.7963H248.969C248.749 44.7963 248.51 44.6667 248.602 44.2594L250.128 35.5408C250.809 31.7091 252.225 30.3948 256.033 30.3948H257.339C260.76 30.3948 261.735 32.2274 261.735 34.3561C261.735 35.041 261.717 35.4112 261.551 36.2257H261.533Z" fill="white"/>
<path d="M274.335 42.501L274.06 44.1114C274.004 44.4631 273.839 44.5742 273.452 44.6482C272.68 44.8148 270.473 44.9999 269.148 44.9999C266.922 44.9999 264.2 44.241 264.2 41.0201C264.2 40.6684 264.2 40.2611 264.274 39.8354L266.573 26.5816C266.628 26.3039 266.757 26.0818 267.18 26.0818H269.663C269.958 26.0818 270.105 26.2299 270.068 26.5816L267.769 39.8354C267.713 40.1686 267.695 40.4462 267.695 40.6869C267.695 41.668 268.173 42.0012 269.351 42.0012H273.949C274.207 42.0012 274.354 42.1678 274.354 42.4084V42.501H274.335Z" fill="white"/>
<path d="M281.436 30.5985C281.712 30.5985 281.932 30.691 281.859 31.0983L279.559 44.278C279.504 44.5557 279.376 44.8148 278.952 44.8148H276.653C276.359 44.8148 276.193 44.6112 276.248 44.278L278.548 31.0983C278.603 30.8206 278.769 30.5985 279.118 30.5985H281.417H281.436ZM282.411 25.4709C282.705 25.4709 282.889 25.6561 282.834 25.9707L282.429 28.192C282.374 28.4697 282.135 28.6918 281.859 28.6918H279.431C279.155 28.6918 278.934 28.4697 278.989 28.192L279.394 25.9707C279.449 25.6931 279.651 25.4709 280.001 25.4709H282.429H282.411Z" fill="white"/>
<path d="M295.728 36.2257L294.33 44.2594C294.275 44.5371 294.201 44.7963 293.76 44.7963H291.405C291.056 44.7963 290.982 44.5741 291.038 44.2594L292.564 35.5408C292.619 35.2076 292.656 34.9114 292.656 34.6153C292.656 33.8008 292.399 33.1714 291.111 33.1714H289.713C288.26 33.1714 287.91 33.8008 287.616 35.5408L286.089 44.2594C286.034 44.5371 285.942 44.7963 285.519 44.7963H283.165C282.944 44.7963 282.705 44.6667 282.797 44.2594L284.324 35.5408C285.004 31.7091 286.421 30.3948 290.228 30.3948H291.534C294.956 30.3948 295.949 32.2274 295.949 34.3561C295.949 35.041 295.93 35.4112 295.765 36.2257H295.728Z" fill="white"/>
<path d="M310.241 37.0217L310.039 38.2249C309.966 38.6322 309.782 38.8543 309.432 38.8543H301.265C301.21 39.206 301.136 39.5392 301.136 39.8909C301.136 41.2607 301.835 42.1492 303.693 42.1492C305.551 42.1492 307.243 41.9641 308.328 41.8716C308.66 41.8531 308.862 41.9271 308.807 42.2418L308.512 43.9078C308.439 44.315 308.365 44.4816 307.887 44.5557C306.213 44.8518 305.109 44.9814 302.865 44.9814C300.621 44.9814 297.936 43.7227 297.936 39.9279C297.936 39.4652 297.954 38.9469 298.064 38.41L298.34 36.8551C299.168 32.1534 301.651 30.4133 305.477 30.4133C308.807 30.4133 310.389 32.6346 310.389 35.5779C310.389 36.0221 310.333 36.5404 310.26 37.0217H310.241ZM304.962 33.2825C302.957 33.2825 302.038 34.6338 301.706 36.4849H307.004C307.059 36.1517 307.096 35.8555 307.096 35.5223C307.096 34.06 306.323 33.2825 304.944 33.2825H304.962Z" fill="white"/>
<path d="M377.731 15.216C376.462 13.3649 374.383 12.2912 372.029 12.1987C372.029 7.53394 368.276 3.75771 363.659 3.75771H350.967C349.459 1.49938 346.902 0 343.995 0H334.007C331.082 0 328.507 1.51789 327.017 3.81325C322.823 4.27602 319.549 7.84862 319.549 12.1802V36.2629C319.549 40.5389 322.75 44.093 326.87 44.6113C326.925 44.6113 326.98 44.6113 327.017 44.6298C327.312 44.6668 327.606 44.6853 327.919 44.6853H363.659C365.388 44.6853 367.007 44.1485 368.35 43.2415C370.373 42.0197 372.047 40.1131 372.875 37.8548C372.875 37.8548 372.875 37.8363 372.875 37.8178L378.448 22.2686C379.368 19.7696 379.092 17.2151 377.731 15.2345V15.216ZM324.203 12.1802C324.203 10.1255 325.858 8.45948 327.9 8.45948H330.291V8.42246C330.291 6.36775 331.947 4.70177 333.989 4.70177H343.977C346.019 4.70177 347.674 6.36775 347.674 8.42246V8.45948H363.641C365.682 8.45948 367.338 10.1255 367.338 12.1802H336.251C332.204 12.1802 328.194 15.0494 326.741 19.0107V19.0477L324.203 26.1374V12.1802ZM374.328 19.3994C374.328 19.3994 374.328 19.5105 374.328 19.5475C374.328 19.6216 374.328 19.6771 374.309 19.7511C374.309 19.8067 374.309 19.8437 374.291 19.8992C374.291 19.9733 374.254 20.0658 374.236 20.1399C374.236 20.1769 374.236 20.2139 374.217 20.2509C374.181 20.3805 374.144 20.4916 374.089 20.6211L372.047 26.341L368.515 36.2073C368.055 37.429 367.08 38.5027 365.94 39.2061C365.554 39.4467 365.131 39.6318 364.708 39.7614C364.708 39.7614 364.671 39.7614 364.652 39.7614C364.45 39.8169 364.266 39.8725 364.064 39.9095C364.027 39.9095 363.99 39.9095 363.972 39.9095C363.769 39.9465 363.585 39.965 363.383 39.965H327.937C325.858 39.965 324.81 38.2805 325.582 36.1888L331.156 20.6211C331.929 18.5479 334.228 16.8449 336.288 16.8449H371.734C371.845 16.8449 371.937 16.8449 372.047 16.8449C372.157 16.8449 372.268 16.8634 372.36 16.8819C372.36 16.8819 372.378 16.8819 372.396 16.8819C372.488 16.8819 372.58 16.919 372.672 16.956H372.709C372.801 16.9745 372.875 17.0115 372.948 17.0485C372.948 17.0485 372.985 17.0485 373.003 17.0671C373.077 17.1041 373.151 17.1411 373.224 17.1781C373.224 17.1781 373.261 17.1966 373.279 17.2151C373.335 17.2522 373.408 17.2892 373.463 17.3447C373.482 17.3447 373.5 17.3817 373.518 17.4002C373.574 17.4373 373.629 17.4928 373.666 17.5483C373.684 17.5668 373.702 17.5854 373.721 17.6039C373.758 17.6594 373.813 17.6964 373.85 17.752C373.868 17.7705 373.886 17.8075 373.905 17.826C373.942 17.8815 373.978 17.9371 373.997 17.9741C373.997 18.0111 374.034 18.0481 374.052 18.0666C374.07 18.1222 374.107 18.1777 374.126 18.2332C374.126 18.2703 374.162 18.3073 374.162 18.3443C374.181 18.3998 374.199 18.4554 374.217 18.5109C374.217 18.5479 374.236 18.6035 374.254 18.659C374.254 18.7145 374.273 18.7701 374.291 18.8256C374.291 18.8811 374.291 18.9367 374.291 18.9922C374.291 19.0477 374.291 19.1033 374.291 19.1588C374.291 19.2143 374.291 19.2884 374.291 19.3439L374.328 19.3994Z" fill="white"/>
<path d="M188.746 2.03613V42.9637" stroke="white" stroke-miterlimit="10"/>
</g>
<defs>
<clipPath id="clip0_25_76">
<rect width="379" height="45" fill="white"/>
</clipPath>
</defs>
</svg>
